<svg xmlns="http://www.w3.org/2000/svg" viewBox="0 0 20.508 27.5">
  <defs>
    <style>
      .cls-1 {
        fill: #02b036;
        stroke: #02b036;
        stroke-width: 0.5px;
      }
    </style>
  </defs>
  <g id="adventure-icon" transform="translate(-187.75 -14.74)">
    <path id="Path_3" data-name="Path 3" class="cls-1" d="M210.785,30.38c-.006.065-.011.129-.011.195a5.159,5.159,0,0,0,1.288,3.328,7.533,7.533,0,0,0,2.059,1.685,10.451,10.451,0,0,0,5.149,1.3c.133,0,.265-.006.4-.013h.058c.131.007.262.013.4.013a10.715,10.715,0,0,0,4.339-.9,8.333,8.333,0,0,0,2.279-1.469,5.392,5.392,0,0,0,1.879-3.952c0-.066-.006-.13-.011-.195l0-.055a8.868,8.868,0,0,0-.785-3.97c-1.68-4.173-1.721-5.1-1.72-5.186.04-.27-.2-.523-.568-.578a.738.738,0,0,0-.841.414c-.006.022-.542,1.982-1.006,3.839l-.005,0a10.535,10.535,0,0,0-.714-2.744,27.491,27.491,0,0,1-1.866-5.95,2.72,2.72,0,0,0-.01-.7.659.659,0,0,0-.651-.459c-.024,0-.049,0-.072,0a.824.824,0,0,0-.591.215c-.105.106-1.092,1.2-3.346,6.894a10.516,10.516,0,0,0-.714,2.744l-.005,0c-.464-1.856-1-3.816-1.006-3.839a.736.736,0,0,0-.84-.414c-.365.055-.609.308-.568.578,0,.09-.04,1.013-1.72,5.186a8.874,8.874,0,0,0-.785,3.97Zm8.664,5.259c-1.531,0-2.776-.926-2.776-2.064s1.245-2.064,2.776-2.064,2.776.926,2.776,2.064S220.979,35.64,219.449,35.64Zm5.943-1.574a7.431,7.431,0,0,1-2.566,1.364,2.626,2.626,0,0,0,.826-1.853c0-1.723-1.885-3.125-4.2-3.125s-4.2,1.4-4.2,3.125a2.534,2.534,0,0,0,.589,1.588,6.811,6.811,0,0,1-2.367-1.6c.006-2.448,2.686-4.439,5.981-4.439s5.981,1.995,5.981,4.446A3.337,3.337,0,0,1,225.392,34.065ZM212.941,26.66c.428-1.063.785-2,1.064-2.8.16.62.327,1.278.476,1.893a.59.59,0,0,0,.412.391.932.932,0,0,0,.666-.034,8.241,8.241,0,0,1,1.1-.415.568.568,0,0,0,.449-.469A9.308,9.308,0,0,1,217.8,22.4c.9-2.268,1.583-3.778,2.08-4.771.028.007.057.013.087.017a42.653,42.653,0,0,0,1.631,4.753,9.317,9.317,0,0,1,.685,2.827.568.568,0,0,0,.449.469,8.219,8.219,0,0,1,1.1.415.933.933,0,0,0,.666.034.589.589,0,0,0,.412-.391c.149-.614.316-1.273.476-1.893.279.8.636,1.737,1.064,2.8a8.041,8.041,0,0,1,.725,3.626.386.386,0,0,0,0,.061l.009.106c0,.041.008.081.008.123a4.071,4.071,0,0,1-.484,1.9c-.691-2.509-3.683-4.4-7.259-4.4-3.272,0-6.051,1.587-7.029,3.779a3.972,3.972,0,0,1-.218-1.272c0-.041,0-.082.008-.123l.008-.106a.382.382,0,0,0,0-.061A8.042,8.042,0,0,1,212.941,26.66Z" transform="translate(-21.692)"/>
    <path id="Path_4" data-name="Path 4" class="cls-1" d="M207.5,639.013l-7.045-1.6,7.045-1.6c.377-.085.589-.382.475-.662a.778.778,0,0,0-.891-.353L198,636.863l-9.078-2.056a.779.779,0,0,0-.891.353c-.115.28.1.577.474.662l7.046,1.6-7.046,1.6c-.377.085-.589.382-.474.662a.722.722,0,0,0,.682.376.945.945,0,0,0,.208-.023L198,637.972l9.078,2.056a.948.948,0,0,0,.208.023.723.723,0,0,0,.683-.376C208.088,639.4,207.876,639.1,207.5,639.013Z" transform="translate(0 -598.062)"/>
  </g>
</svg>
