<svg xmlns="http://www.w3.org/2000/svg" viewBox="0 0 26.984 27">
  <defs>
    <style>
      .cls-1 {
        fill: #0b9dee;
      }

      .cls-2 {
        fill: #0e96e2;
      }

      .cls-3 {
        fill: none;
      }
    </style>
  </defs>
  <g id="life-icon" transform="translate(-24.34 -27.817)">
    <path id="Path_5" data-name="Path 5" class="cls-1" d="M47.449,50.773a13.491,13.491,0,1,0-19.227,0l.074.079.079.079a13.464,13.464,0,0,0,18.927,0l.084-.079Zm-.331-9.463a9.227,9.227,0,0,1-1.4,4.916l-5.783-5.783V32.277a9.3,9.3,0,0,1,7.182,9.043ZM35.73,32.277v8.17l-5.783,5.783A9.279,9.279,0,0,1,35.73,32.277ZM32.928,49.2,37.833,44.3,42.738,49.2a9.269,9.269,0,0,1-9.81,0Z" transform="translate(-0.002)"/>
    <path id="Path_6" data-name="Path 6" class="cls-2" d="M37.831,29.775A13.507,13.507,0,0,1,51.285,42.3q.037-.478.037-.967a13.491,13.491,0,1,0-26.981,0q0,.489.037.967A13.507,13.507,0,0,1,37.831,29.775Z" transform="translate(0 -0.011)"/>
    <path id="Path_7" data-name="Path 7" class="cls-3" d="M47.449,50.773a13.491,13.491,0,1,0-19.227,0l.074.079.079.079a13.464,13.464,0,0,0,18.927,0l.084-.079Zm-.331-9.463a9.227,9.227,0,0,1-1.4,4.916l-5.783-5.783V32.277a9.3,9.3,0,0,1,7.182,9.043ZM35.73,32.277v8.17l-5.783,5.783A9.279,9.279,0,0,1,35.73,32.277ZM32.928,49.2,37.833,44.3,42.738,49.2a9.269,9.269,0,0,1-9.81,0Z" transform="translate(-0.002)"/>
  </g>
</svg>
