<?xml version="1.0" encoding="UTF-8" standalone="no"?>
<!-- Created with Inkscape (http://www.inkscape.org/) -->

<svg
   xmlns:dc="http://purl.org/dc/elements/1.1/"
   xmlns:cc="http://creativecommons.org/ns#"
   xmlns:rdf="http://www.w3.org/1999/02/22-rdf-syntax-ns#"
   xmlns:svg="http://www.w3.org/2000/svg"
   xmlns="http://www.w3.org/2000/svg"
   xmlns:xlink="http://www.w3.org/1999/xlink"
   xmlns:sodipodi="http://sodipodi.sourceforge.net/DTD/sodipodi-0.dtd"
   xmlns:inkscape="http://www.inkscape.org/namespaces/inkscape"
   width="26.458334mm"
   height="26.458334mm"
   viewBox="0 0 26.458334 26.458334"
   version="1.1"
   id="svg8"
   inkscape:version="0.92.3 (2405546, 2018-03-11)"
   sodipodi:docname="cn logo.svg">
  <defs
     id="defs2">
    <linearGradient
       inkscape:collect="always"
       id="linearGradient866">
      <stop
         style="stop-color:#00af34;stop-opacity:1"
         offset="0"
         id="stop862" />
      <stop
         style="stop-color:#00b348;stop-opacity:0.757"
         offset="1"
         id="stop864" />
    </linearGradient>
    <linearGradient
       inkscape:collect="always"
       xlink:href="#linearGradient866"
       id="linearGradient868"
       x1="-61.641792"
       y1="43.619167"
       x2="50.426151"
       y2="66.903839"
       gradientUnits="userSpaceOnUse"
       gradientTransform="translate(-18.33105,18.73868)" />
    <style
       id="style908">.a{fill:#565656;}</style>
    <linearGradient
       inkscape:collect="always"
       xlink:href="#linearGradient866"
       id="linearGradient929"
       gradientUnits="userSpaceOnUse"
       gradientTransform="translate(-18.33105,18.73868)"
       x1="-61.641792"
       y1="43.619167"
       x2="50.426151"
       y2="66.903839" />
  </defs>
  <sodipodi:namedview
     id="base"
     pagecolor="#ffffff"
     bordercolor="#666666"
     borderopacity="1.0"
     inkscape:pageopacity="0.0"
     inkscape:pageshadow="2"
     inkscape:zoom="2.8284271"
     inkscape:cx="58.443502"
     inkscape:cy="17.736843"
     inkscape:document-units="px"
     inkscape:current-layer="layer1"
     showgrid="false"
     showborder="false"
     showguides="true"
     inkscape:guide-bbox="true"
     inkscape:measure-start="-1212.69,819.006"
     inkscape:measure-end="-1193.42,783.474"
     fit-margin-top="0"
     fit-margin-left="0"
     fit-margin-right="0"
     fit-margin-bottom="0"
     inkscape:window-width="1920"
     inkscape:window-height="1017"
     inkscape:window-x="-8"
     inkscape:window-y="-8"
     inkscape:window-maximized="1" />
  <metadata
     id="metadata5">
    <rdf:RDF>
      <cc:Work
         rdf:about="">
        <dc:format>image/svg+xml</dc:format>
        <dc:type
           rdf:resource="http://purl.org/dc/dcmitype/StillImage" />
        <dc:title></dc:title>
      </cc:Work>
    </rdf:RDF>
  </metadata>
  <g
     inkscape:label="Layer 1"
     inkscape:groupmode="layer"
     id="layer1"
     transform="translate(338.78686,-46.300347)">
    <g
       id="g927"
       transform="matrix(0.17960779,0,0,0.17960779,-315.0997,55.223659)"
       style="stroke-width:5.56768703">
      <rect
         transform="rotate(45)"
         ry="16.177834"
         y="1.3139803"
         x="-81.031181"
         height="113.62106"
         width="113.62106"
         id="rect826"
         style="opacity:1;fill:url(#linearGradient929);fill-opacity:1;stroke:none;stroke-width:83.51530457;stroke-miterlimit:4;stroke-dasharray:none;stroke-opacity:1" />
      <path
         sodipodi:nodetypes="ssszzssszzs"
         inkscape:connector-curvature="0"
         id="path815"
         d="m -78.549423,-1.9915311 c -14.213319,0 -25.856747,11.6434024 -25.856747,25.8567171 0,14.213324 10.905831,26.073652 25.11915,26.073652 8.160501,0 19.669546,-5.083293 19.614302,-8.843783 -0.05524,-3.760491 -4.416296,-8.432506 -6.464584,-7.96507 -2.048288,0.467437 -8.005153,5.562843 -13.149718,5.562843 -8.135612,0 -13.873119,-6.692027 -13.873119,-14.827642 0,-8.135606 6.475101,-14.6107054 14.610716,-14.6107054 5.144557,0 10.461866,4.3997534 12.412121,4.8370404 1.950256,0.437298 6.446551,-4.5373027 6.458415,-8.0312928 0.01185,-3.4939989 -10.710044,-8.0517593 -18.870536,-8.0517593 z"
         style="color:#000000;font-style:normal;font-variant:normal;font-weight:normal;font-stretch:normal;font-size:medium;line-height:normal;font-family:sans-serif;font-variant-ligatures:normal;font-variant-position:normal;font-variant-caps:normal;font-variant-numeric:normal;font-variant-alternates:normal;font-feature-settings:normal;text-indent:0;text-align:start;text-decoration:none;text-decoration-line:none;text-decoration-style:solid;text-decoration-color:#000000;letter-spacing:normal;word-spacing:normal;text-transform:none;writing-mode:lr-tb;direction:ltr;text-orientation:mixed;dominant-baseline:auto;baseline-shift:baseline;text-anchor:start;white-space:normal;shape-padding:0;clip-rule:nonzero;display:inline;overflow:visible;visibility:visible;opacity:1;isolation:auto;mix-blend-mode:normal;color-interpolation:sRGB;color-interpolation-filters:linearRGB;solid-color:#000000;solid-opacity:1;vector-effect:none;fill:#ffffff;fill-opacity:1;fill-rule:nonzero;stroke:none;stroke-width:83.51529694;stroke-linecap:butt;stroke-linejoin:miter;stroke-miterlimit:4;stroke-dasharray:none;stroke-dashoffset:0;stroke-opacity:1;color-rendering:auto;image-rendering:auto;shape-rendering:auto;text-rendering:auto;enable-background:accumulate" />
      <path
         style="fill:#ffffff;stroke-width:1.47311735"
         inkscape:connector-curvature="0"
         class="a"
         d="m -17.263089,46.000124 h -0.838164 l -0.445795,-0.09586 h -0.0084 l -0.904861,-0.166948 -0.851898,-0.252595 -0.692422,-0.339888 -1.03838,-0.700211 -1.570234,-1.460199 -2.636208,-2.611792 -3.168147,-3.229055 -3.54107,-3.482204 -4.844978,-4.77329 -5.21786,-5.138477 -1.703796,-1.572786 -0.266284,-0.14004 v 1.60079 c 0,0 0.233943,22.364228 0.170103,22.330293 -0.06384,-0.03419 -11.488381,0 -11.488381,0 l -0.06048,-38.0807491 0.102062,-2.0737046 0.328024,-1.2959303 0.388926,-0.7777748 0.348605,-0.4535215 0.573182,-0.5849428 0.696496,-0.408264 0.593594,-0.2380762 0.901333,-0.1077159 h 1.249307 l 0.983864,0.1077159 0.798894,0.2375434 0.900828,0.4104396 0.796878,0.5838683 0.430002,0.3452594 0.696496,0.5386286 0.736774,0.6048743 0.758153,0.7125992 1.064883,1.0799434 1.842902,1.7063614 2.190877,2.1383377 2.006956,2.030615 2.354932,2.332782 2.477741,2.397417 3.120266,3.206432 2.688668,2.667808 2.26274,2.358637 0.771929,0.700212 0.319624,-0.281144 V 2.0721262 h 11.527145 l -0.05124,33.3645518 0.05124,-0.02708 -0.04284,3.088473 c 0.0039,0.360889 0.0042,0.796627 -0.0084,0.891965 -0.0039,0.01909 -0.0084,0.05009 -0.0126,0.08995 l -0.07938,2.089325 -0.05124,0.831638 c 0,0 -0.155402,0.503077 -0.176403,0.535392 -0.021,0.03241 -0.258723,0.689439 -0.258723,0.689439 l -0.310386,0.558014 -0.362045,0.415813 -0.517699,0.470765 -0.569108,0.405024 c 0,0 -0.423912,0.283853 -0.455497,0.295175 -0.0336,0.01243 -0.560456,0.161618 -0.560456,0.161618 l -0.611402,0.06576 z"
         id="path912" />
    </g>
  </g>
</svg>
