<svg xmlns="http://www.w3.org/2000/svg" viewBox="0 0 20 27">
  <defs>
    <style>
      .cls-1 {
        fill: #fff;
      }
    </style>
  </defs>
  <g id="philosophy-logo" transform="translate(-717.801 -181.134)">
    <path id="Path_1" data-name="Path 1" d="M1165.409,1414.134h0a4.807,4.807,0,0,0,2.43-.86,2.883,2.883,0,0,0,.451-.5,4.408,4.408,0,0,0,.137-1.628v-6.333h0a.233.233,0,0,1,.155-.26l1.3-.479.844-.283s.945-.375,1.022-.421,1.01-.5,1.135-.572.742-.554.909-.7.671-.641.671-.641l.463-.525.357-.508.469-.768.315-.676.279-.722.16-.652.2-.877.1-.872s.006-1.38,0-1.472-.053-.883-.053-.883l-.125-.849-.214-.733-.137-.4-.142-.45-.2-.462-.226-.421-.25-.4-.279-.392-.279-.358-.238-.231-.208-.208-.463-.4-.416-.266-.576-.294-.672-.271-.416-.11-.624-.087s-.933.006-.962,0-.725.087-.725.087l-.428.11-.606.271-.511.294-.3.227-.052.038-.475.421-.392.433-.493.658-.368.7-.244.808-.2,1.033-.071.479-.143,1.241v6.812l.03,1.818a5.92,5.92,0,0,1-.677-.167c-.22-.081-.784-.381-.784-.381l-.535-.352-.481-.352-.44-.416-.452-.5-.368-.531-.315-.5-.3-.606-.226-.537-.2-.554-.178-.71-.113-.67v-.623s-.036-.693,0-1.229a4.113,4.113,0,0,1,.2-1l.273-.906.321-.8.333-.618.428-.606.576-.681.683-.624.7-.491s.434-.329.469-.369.273-.248.345-.341a1.913,1.913,0,0,0,.279-.318c.107-.179.083-.063.113-.266a.352.352,0,0,0-.041-.271c-.006-.035-.119-.058-.244-.052s-.594.052-.594.052-.535.173-.576.19-.57.271-.606.266-.641.266-.707.294-.689.444-.689.444l-.79.531-.63.456-.624.595-.582.612-.457.664-.612,1.028-.416.906s-.154.341-.161.369-.208.537-.208.537l-.095.4s-.125.543-.125.572-.03,1.068-.03,1.091v.525l.03.75.089.577s.327,1.074.327,1.1.172.473.172.473l.362.733.362.6.434.583.475.525.624.52.867.658,1.052.548.879.37,1.241.358.232.052.2.035.327.035s.666.04.7.04h.321v9.427" transform="translate(-439 -1206)"/>
    <path id="Path_2" data-name="Path 2" class="cls-1" d="M1253.807,1414.133v-10.754l.062-.8.054-.5.062-.36.077-.285.124-.345.17-.285.131-.218.178-.21.232-.158.239-.113.2-.045h.27c.039,0,.247-.007.286,0a2.354,2.354,0,0,1,.247.113c.047.022.2.128.232.15s.278.18.278.18l.463.345.34.33s.247.3.262.323.386.518.386.518l.262.443.255.5.263.563s.3.916.3.946.2.84.2.84a1.436,1.436,0,0,1,.046.15,2.76,2.76,0,0,1,0,.36v1.719l-.046.653-.108.5-.154.676-.192.692-.27.736-.238.515-.219.391-.37.56-.416.533s-.324.334-.335.342l-.595.486-.273.176-.449.226-.194.063s-.064.019-.171.043l-.05.009-.041.007h-.069c-.269,0-.018,0-.018,0Z" transform="translate(-524.467 -1217.43)"/>
  </g>
</svg>
